<svg width="32" height="32" viewBox="0 0 32 32" fill="none" xmlns="http://www.w3.org/2000/svg">
<g clip-path="url(#clip0_53_181)">
<path d="M22.8571 9.14293C25.282 11.5678 26.8851 14.6157 27.3137 17.6163C27.7424 20.6169 26.9615 23.3243 25.1429 25.1429C23.3242 26.9616 20.6168 27.7424 17.6162 27.3138C14.6157 26.8851 11.5677 25.2821 9.14286 22.8572L12.9143 19.0858C14.0055 20.177 15.377 20.8983 16.7273 21.0912C18.0776 21.2841 19.2959 20.9327 20.1143 20.1144C20.9327 19.296 21.2841 18.0776 21.0912 16.7274C20.8983 15.3771 20.1769 14.0055 19.0857 12.9144L22.8571 9.14293Z" fill="#3CAEA3"/>
<path d="M22.8571 9.14293C21.6565 7.94227 20.2902 6.93074 18.8364 6.16608C17.3825 5.40142 15.8695 4.89861 14.3838 4.68636C12.898 4.47411 11.4686 4.55658 10.1772 4.92906C8.8858 5.30153 7.75763 5.95672 6.85714 6.85721C5.95665 7.75771 5.30146 8.88587 4.92899 10.1773C4.55651 11.4687 4.47404 12.8981 4.68629 14.3838C4.89854 15.8696 5.40135 17.3826 6.16601 18.8364C6.93067 20.2903 7.9422 21.6566 9.14286 22.8572L12.9143 19.0858C12.374 18.5455 11.9188 17.9307 11.5747 17.2764C11.2306 16.6222 11.0043 15.9413 10.9088 15.2728C10.8133 14.6042 10.8504 13.961 11.018 13.3798C11.1857 12.7987 11.4805 12.291 11.8857 11.8858C12.2909 11.4806 12.7986 11.1857 13.3797 11.0181C13.9609 10.8505 14.6041 10.8134 15.2727 10.9089C15.9413 11.0044 16.6221 11.2307 17.2764 11.5748C17.9306 11.9189 18.5454 12.3741 19.0857 12.9144L22.8571 9.14293Z" fill="#20639B"/>
<path d="M19.0781 12.9067C19.6184 13.447 20.0736 14.0618 20.4177 14.7161C20.7618 15.3703 20.988 16.0512 21.0835 16.7197C21.179 17.3883 21.1419 18.0316 20.9743 18.6127C20.8067 19.1938 20.5119 19.7015 20.1066 20.1067C19.7014 20.5119 19.1937 20.8068 18.6126 20.9744C18.0315 21.142 17.3883 21.1791 16.7197 21.0836C16.0511 20.9881 15.3702 20.7618 14.716 20.4177C14.0618 20.0736 13.4469 19.6184 12.9066 19.0782L15.9924 15.9924L19.0781 12.9067Z" fill="#F6D55C"/>
<path d="M19.0781 12.9067C18.5378 12.3664 17.923 11.9112 17.2687 11.5671C16.6145 11.223 15.9336 10.9968 15.265 10.9013C14.5965 10.8058 13.9532 10.8429 13.3721 11.0105C12.791 11.1781 12.2833 11.4729 11.8781 11.8782C11.4729 12.2834 11.178 12.791 11.0104 13.3722C10.8428 13.9533 10.8057 14.5965 10.9012 15.2651C10.9967 15.9337 11.223 16.6146 11.5671 17.2688C11.9112 17.923 12.3663 18.5379 12.9066 19.0782L15.9924 15.9924L19.0781 12.9067Z" fill="#ED553B"/>
</g>
<defs>
<clipPath id="clip0_53_181">
<rect width="32" height="32" fill="white"/>
</clipPath>
</defs>
</svg>
